<svg xmlns="http://www.w3.org/2000/svg" version="1.1" xmlns:xlink="http://www.w3.org/1999/xlink" xmlns:svgjs="http://svgjs.com/svgjs" width="512" height="512" x="0" y="0" viewBox="0 0 500 500" style="enable-background:new 0 0 512 512" xml:space="preserve" class=""><g><g xmlns="http://www.w3.org/2000/svg"><g><g><path d="m214 341.823h83v94.558c0 17.169 13.558 31.442 30.727 31.442h52.341c18.517 0 32.928-16.19 30.901-34.596l-27.019-245.404h-257.088l-28.42 245.227c-2.141 18.464 12.293 34.773 30.881 34.773h53.328c17.169 0 31.35-14.273 31.35-31.442v-94.558z" fill="#4c263a" data-original="#4c263a"></path></g><g id="XMLID_13_"><path d="m257.704 398.823h-6.134c-61.618 0-111.57-49.952-111.57-111.571v-119.046c0-20.094 16.289-36.383 36.383-36.383h155.89c20.283 0 36.726 16.443 36.726 36.726v118.978c.001 61.467-49.828 111.296-111.295 111.296z" fill="#fdd2b5" data-original="#fdd2b5"></path></g><g id="XMLID_12_"><path d="m260.811 77.823h-12.653c-71.134 0-123.857 66.201-108.092 135.609v.055l2.312-.088c44.803-2.243 86.111-24.882 112.106-61.463v.007.003c25.994 36.58 67.3 59.235 112.101 61.478l2.317.117v-.109c15.766-69.409-36.957-135.609-108.091-135.609z" fill="#5a2c42" data-original="#5a2c42" class=""></path></g><g><g><path d="m79.581 287.875 65.683-96.42 2.79-4.565c19.461-31.844 9.422-73.435-22.422-92.895l-109.407 179.023c-11.947 19.549-5.576 45.094 14.151 56.743l75.327 44.482 7.735-71.179z" fill="#f9b995" data-original="#f9b995"></path></g><g><path d="m430.615 287.875-65.683-96.42-2.79-4.565c-19.461-31.844-9.422-73.435 22.422-92.895l109.407 179.023c11.947 19.549 5.576 45.094-14.151 56.743l-75.327 44.482-7.735-71.179z" fill="#f9b995" data-original="#f9b995"></path></g></g><g><g><g><path d="m223.765 237.586c-1.024 0-2.048-.391-2.829-1.172-4.587-4.591-10.686-7.118-17.172-7.118-6.487 0-12.585 2.527-17.172 7.117-1.561 1.563-4.094 1.563-5.657.002-1.563-1.562-1.563-4.094-.001-5.656 6.098-6.103 14.206-9.463 22.831-9.463 8.624 0 16.732 3.36 22.831 9.462 2.436 2.44.561 6.828-2.831 6.828z" fill="#5a2c42" data-original="#5a2c42" class=""></path></g><path d="m231.952 259.421c-1.563-1.563-4.095-1.563-5.657.002-6.018 6.022-14.02 9.339-22.531 9.339s-16.513-3.316-22.531-9.339c-1.562-1.563-4.094-1.564-5.657-.002s-1.563 4.094-.002 5.656c1.302 1.303 2.684 2.498 4.125 3.595l-2.034 7.596c-.674 2.517 1.296 5.035 3.866 5.035 1.767 0 3.383-1.179 3.861-2.967l1.547-5.336c4.052 1.906 8.061 3.115 13.061 3.563v7.257c0 2.209 1.791 4 4 4s4-1.791 4-4v-7.257c4-.448 8.773-1.658 12.824-3.563l1.37 5.336c.479 1.788 2.065 2.967 3.832 2.967 2.57 0 4.525-2.518 3.851-5.035l-2.042-7.596c1.441-1.097 2.819-2.292 4.121-3.595 1.563-1.562 1.558-4.094-.004-5.656z" fill="#5a2c42" data-original="#5a2c42" class=""></path></g></g><g><g><path d="m285.764 237.586c1.024 0 2.048-.391 2.829-1.172 4.587-4.591 10.686-7.118 17.172-7.118 6.487 0 12.585 2.527 17.172 7.117 1.561 1.563 4.094 1.563 5.657.002 1.563-1.562 1.563-4.094.001-5.656-6.098-6.103-14.206-9.463-22.831-9.463-8.624 0-16.732 3.36-22.831 9.462-2.436 2.44-.561 6.828 2.831 6.828z" fill="#5a2c42" data-original="#5a2c42" class=""></path></g><path d="m277.578 259.421c1.563-1.563 4.095-1.563 5.657.002 6.018 6.022 14.02 9.339 22.531 9.339s16.513-3.316 22.531-9.339c1.562-1.563 4.094-1.564 5.657-.002s1.563 4.094.002 5.656c-1.302 1.303-2.684 2.498-4.125 3.595l2.034 7.596c.674 2.517-1.296 5.035-3.866 5.035-1.767 0-3.383-1.179-3.861-2.967l-1.312-5.336c-4.052 1.906-7.825 3.115-12.825 3.563v7.257c0 2.209-1.791 4-4 4s-4-1.791-4-4v-7.257c-4-.448-9.008-1.658-13.06-3.563l-1.488 5.336c-.479 1.788-2.124 2.967-3.891 2.967-2.57 0-4.555-2.518-3.881-5.035l2.027-7.596c-1.441-1.097-2.826-2.292-4.129-3.595-1.561-1.562-1.564-4.094-.001-5.656z" fill="#5a2c42" data-original="#5a2c42" class=""></path></g></g><g><g><path d="m435.245 222.049c-.364-.064-.727-.105-1.092-.186-13.224-2.948-21.552-16.054-18.603-29.272s16.06-21.544 29.284-18.596c3.146.701 6.003 1.992 8.509 3.708 5.72-6.539 14.745-9.83 23.823-7.805 13.224 2.948 21.553 16.054 18.603 29.272-1.586 7.107-6.122 12.776-12.021 16.063.65 3.251.663 6.683-.106 10.127-2.949 13.218-16.06 21.544-29.284 18.596-10.74-2.396-18.251-11.492-19.113-21.907z" fill="#c7eff9" data-original="#c7eff9"></path></g><g><path d="m80.955 221.746c0-10.812-7.379-19.877-17.37-22.504-1.425-11.501-11.217-20.409-23.108-20.409s-21.683 8.908-23.108 20.409c-9.99 2.627-17.369 11.692-17.369 22.504 0 12.866 10.434 23.296 23.305 23.296.399 0 .788-.04 1.183-.06 3.065 9.288 11.803 15.999 22.122 15.999 11.479 0 20.997-8.303 22.927-19.224 6.828-4.062 11.418-11.492 11.418-20.011z" fill="#c7eff9" data-original="#c7eff9"></path></g><g><path d="m410.749 107.055c0-12.154-8.295-22.344-19.526-25.298-1.602-12.929-12.609-22.943-25.976-22.943s-24.374 10.014-25.976 22.943c-11.231 2.954-19.526 13.144-19.526 25.298 0 14.463 11.729 26.188 26.198 26.188.449 0 .886-.045 1.33-.067 3.446 10.441 13.268 17.985 24.868 17.985 12.904 0 23.604-9.334 25.773-21.61 7.676-4.567 12.835-12.919 12.835-22.496z" fill="#c7eff9" data-original="#c7eff9"></path></g><g><ellipse cx="466.933" cy="48.414" fill="#2ccdf2" rx="16.243" ry="16.237" data-original="#2ccdf2"></ellipse></g><g><ellipse cx="45.794" cy="83.734" fill="#2ccdf2" rx="16.243" ry="16.237" data-original="#2ccdf2"></ellipse></g><g><ellipse cx="29.551" cy="424.1" fill="#2ccdf2" rx="23.305" ry="23.296" data-original="#2ccdf2"></ellipse></g><g><path d="m166.768 52.983c8.206-8.938 21.672-13.485 35.165-10.716 17.594 3.61 29.026 18.381 27.048 33.972 6.6 5.254 10.758 12.887 10.758 21.388 0 8.695-4.353 16.48-11.217 21.742.623 2.226.958 4.553.958 6.95 0 15.846-14.436 28.692-32.244 28.692-7.901 0-15.134-2.533-20.742-6.73-5.988 4.207-13.54 6.73-21.762 6.73-15.398 0-28.476-8.807-33.242-21.066-17.577-1.739-31.246-14.997-31.246-31.101 0-12.243 7.904-22.837 19.416-27.981.138-1.504.377-3.015.769-4.529 4.365-16.844 23.25-27.35 42.18-23.466 5.36 1.099 10.147 3.236 14.159 6.115z" fill="#c7eff9" data-original="#c7eff9"></path></g></g></g></g></svg>