<svg xmlns="http://www.w3.org/2000/svg" version="1.1" xmlns:xlink="http://www.w3.org/1999/xlink" xmlns:svgjs="http://svgjs.com/svgjs" width="512" height="512" x="0" y="0" viewBox="0 0 512 512" style="enable-background:new 0 0 512 512" xml:space="preserve" class=""><g><circle xmlns="http://www.w3.org/2000/svg" cx="256" cy="267" fill="#f3d5d5" r="245" data-original="#f3d5d5" class=""></circle><path xmlns="http://www.w3.org/2000/svg" d="m130.668 162.164-18.501-38.545c-1.508-3.142-4.683-5.139-8.167-5.139s-6.659 1.997-8.167 5.139l-18.502 38.545c-.587 1.225-.892 2.563-.892 3.92v4.916h55.121v-4.916c.001-1.357-.304-2.695-.892-3.92z" fill="#ffffff" data-original="#ffffff"></path><path xmlns="http://www.w3.org/2000/svg" d="m94.331 162.164 18.169-37.852-.333-.693c-1.508-3.142-4.683-5.139-8.167-5.139s-6.659 1.997-8.167 5.139l-18.502 38.545c-.587 1.225-.892 2.563-.892 3.92v4.916h17v-4.916c0-1.357.305-2.695.892-3.92z" fill="#edf6ff" data-original="#edf6ff"></path><path xmlns="http://www.w3.org/2000/svg" d="m76.439 168.202v127.798l55.122 59.989v-187.787z" fill="#717ed4" data-original="#717ed4" class=""></path><path xmlns="http://www.w3.org/2000/svg" d="m93.439 168.202h-17v127.798l17 18.501z" fill="#5766cc" data-original="#5766cc"></path><path xmlns="http://www.w3.org/2000/svg" d="m76.439 433.658c16.086 17.323 34.646 32.313 55.121 44.41v-125.079l-55.121-59.989z" fill="#2b41ad" data-original="#2b41ad" class=""></path><path xmlns="http://www.w3.org/2000/svg" d="m93.439 311.501-17-18.501v140.658c5.389 5.804 11.075 11.323 17 16.58z" fill="#232e7a" data-original="#232e7a" class=""></path><path xmlns="http://www.w3.org/2000/svg" d="m95.833 123.619-4.877 10.161h26.088l-4.877-10.161c-1.508-3.142-4.683-5.139-8.167-5.139s-6.659 1.998-8.167 5.139z" fill="#2b41ad" data-original="#2b41ad" class=""></path><path xmlns="http://www.w3.org/2000/svg" d="m112.167 123.619c-1.508-3.142-4.683-5.139-8.167-5.139s-6.659 1.997-8.167 5.139l-4.877 10.161h16.956l4.566-9.513z" fill="#232e7a" data-original="#232e7a" class=""></path><path xmlns="http://www.w3.org/2000/svg" d="m183.95 311-.001-.008v190.232c18.386 5.649 37.694 9.186 57.643 10.343v-200.567z" fill="#2b41ad" data-original="#2b41ad" class=""></path><path xmlns="http://www.w3.org/2000/svg" d="m213 343.5c.693 0 1.362.102 2 .278v-31.778h-31.05l-.001-.008v189.232c10.085 3.099 20.457 5.537 31.051 7.32v-87.323c-.638.177-1.307.278-2 .278-4.143 0-7.5-3.357-7.5-7.5v-63c0-4.142 3.357-7.499 7.5-7.499z" fill="#232e7a" data-original="#232e7a" class=""></path><path xmlns="http://www.w3.org/2000/svg" d="m326.58 49.627c-29.324-31.54-70.807-49.625-113.81-49.627-43.002 0-84.484 18.089-113.811 49.627-4.041 4.35-4.104 11.065-.141 15.489l72.51 80.884h82.881l72.512-80.888c3.963-4.422 3.902-11.135-.141-15.485z" fill="#aa3584" data-original="#aa3584" class=""></path><path xmlns="http://www.w3.org/2000/svg" d="m230.686 146-100.754-112.391c-1.969-2.198-2.942-4.963-2.93-7.722-10.182 6.731-19.616 14.677-28.043 23.739-4.041 4.35-4.104 11.065-.141 15.489l72.51 80.885z" fill="#832968" data-original="#832968" class=""></path><path xmlns="http://www.w3.org/2000/svg" d="m261.349 146.7c-.949-1.081-2.317-1.7-3.756-1.7h-89.645c-1.438 0-2.807.619-3.757 1.7-.949 1.08-1.387 2.518-1.201 3.944l15.115 116.356h69.333l15.113-116.356c.185-1.426-.252-2.864-1.202-3.944z" fill="#2b41ad" data-original="#2b41ad" class=""></path><path xmlns="http://www.w3.org/2000/svg" d="m209.026 266-14.984-115.355c-.186-1.427.252-2.864 1.201-3.944.95-1.081 2.318-1.7 3.757-1.7h-31.052c-1.438 0-2.807.619-3.757 1.7-.949 1.08-1.387 2.518-1.201 3.944l14.985 115.355z" fill="#232e7a" data-original="#232e7a" class=""></path><path xmlns="http://www.w3.org/2000/svg" d="m177.975 266 5.975 46h57.643l5.974-46z" fill="#8a94db" data-original="#8a94db" class=""></path><path xmlns="http://www.w3.org/2000/svg" d="m177.975 266 5.975 46h31.026l-5.976-46z" fill="#717ed4" data-original="#717ed4" class=""></path><path xmlns="http://www.w3.org/2000/svg" d="m241.593 312 2.987-23h-63.617l2.987 23z" fill="#717ed4" data-original="#717ed4" class=""></path><path xmlns="http://www.w3.org/2000/svg" d="m180.963 289 2.987 23h31.037l-2.987-23z" fill="#5766cc" data-original="#5766cc"></path><path xmlns="http://www.w3.org/2000/svg" d="m352.385 248c6.367-9.227 10.233-21.289 10.233-34.5 0-28.995-18.58-52.5-41.5-52.5-22.919 0-41.5 23.505-41.5 52.5 0 13.211 3.866 25.273 10.233 34.5z" fill="#aa3584" data-original="#aa3584" class=""></path><path xmlns="http://www.w3.org/2000/svg" d="m315.227 248c-6.368-9.225-10.227-21.291-10.227-34.5 0-23.394 12.099-43.205 28.81-49.99-4.001-1.624-8.264-2.51-12.691-2.51-22.919 0-41.5 23.505-41.5 52.5 0 13.211 3.866 25.273 10.233 34.5z" fill="#832968" data-original="#832968" class=""></path><path xmlns="http://www.w3.org/2000/svg" d="m300.974 362.722v145.145c13.876-2.575 27.341-6.314 40.289-11.122v-134.023z" fill="#2b41ad" data-original="#2b41ad" class=""></path><path xmlns="http://www.w3.org/2000/svg" d="m300.974 362.722v145.145c13.876-2.575 27.341-6.314 40.289-11.122v-134.023z" fill="#2b41ad" data-original="#2b41ad" class=""></path><path xmlns="http://www.w3.org/2000/svg" d="m321 467.5c-4.143 0-7.5-3.357-7.5-7.5v-63c0-4.143 3.357-7.5 7.5-7.5.182 0 .358.015.536.027v-25.806h-20.561l-.001-.008v144.152c6.962-1.292 13.82-2.878 20.563-4.744v-35.649c-.179.013-.355.028-.537.028z" fill="#232e7a" data-original="#232e7a" class=""></path><path xmlns="http://www.w3.org/2000/svg" d="m355.071 248.189c-.664-.756-1.62-1.189-2.625-1.189h-62.656c-1.005 0-1.961.433-2.625 1.189-.664.755-.969 1.76-.84 2.757l10.604 81.625h48.38l10.603-81.626c.129-.997-.177-2.002-.841-2.756z" fill="#2b41ad" data-original="#2b41ad" class=""></path><path xmlns="http://www.w3.org/2000/svg" d="m317.339 331.57-10.474-80.625c-.129-.997.176-2.002.84-2.757.664-.756 1.619-1.189 2.625-1.189h-20.54c-1.005 0-1.961.433-2.625 1.189-.664.755-.969 1.76-.84 2.757l10.474 80.625z" fill="#232e7a" data-original="#232e7a" class=""></path><path xmlns="http://www.w3.org/2000/svg" d="m296.798 331.57 4.177 32.152h40.288l4.176-32.152z" fill="#8a94db" data-original="#8a94db" class=""></path><path xmlns="http://www.w3.org/2000/svg" d="m296.798 331.57 4.177 32.152h20.561l-4.177-32.152z" fill="#717ed4" data-original="#717ed4" class=""></path><path xmlns="http://www.w3.org/2000/svg" d="m341.263 363.722 2.088-16.076h-44.464l2.088 16.076z" fill="#717ed4" data-original="#717ed4" class=""></path><path xmlns="http://www.w3.org/2000/svg" d="m298.887 347.646 2.088 16.076h20.561l-2.089-16.076z" fill="#5766cc" data-original="#5766cc"></path><path xmlns="http://www.w3.org/2000/svg" d="m427.975 58.981-25.117 11.844c-5.628 2.654-10.233 9.918-10.233 16.141v36.412h45.583v-57.909c-.001-6.223-4.605-9.142-10.233-6.488z" fill="#aa3584" data-original="#aa3584" class=""></path><path xmlns="http://www.w3.org/2000/svg" d="m413.417 97.588c0-6.223 4.605-13.486 10.233-16.141l14.557-6.864v-9.114c0-6.223-4.604-9.142-10.232-6.487l-25.117 11.844c-5.628 2.654-10.233 9.918-10.233 16.141v36.412h20.793v-25.791z" fill="#832968" data-original="#832968" class=""></path><path xmlns="http://www.w3.org/2000/svg" d="m392.624 222.866v247.527c16.788-11.3 32.095-24.626 45.583-39.623v-207.904z" fill="#2b41ad" data-original="#2b41ad" class=""></path><path xmlns="http://www.w3.org/2000/svg" d="m407.5 363v-63c0-3.599 2.535-6.603 5.917-7.329v-69.805h-20.793v247.527c7.22-4.859 14.148-10.116 20.793-15.697v-84.367c-3.382-.726-5.917-3.73-5.917-7.329z" fill="#232e7a" data-original="#232e7a" class=""></path><path xmlns="http://www.w3.org/2000/svg" d="m392.624 122.039h45.583v66.622h-45.583z" fill="#2b41ad" data-original="#2b41ad" class=""></path><path xmlns="http://www.w3.org/2000/svg" d="m392.624 122.039h20.793v66.622h-20.793z" fill="#232e7a" data-original="#232e7a" class=""></path><path xmlns="http://www.w3.org/2000/svg" d="m104 275.5c-4.143 0-7.5-3.357-7.5-7.5v-63c0-4.143 3.357-7.5 7.5-7.5s7.5 3.357 7.5 7.5v63c0 4.143-3.357 7.5-7.5 7.5z" fill="#a4ace3" data-original="#a4ace3" class=""></path><g xmlns="http://www.w3.org/2000/svg" fill="#717ed4"><path d="m213 421.5c-4.143 0-7.5-3.357-7.5-7.5v-63c0-4.143 3.357-7.5 7.5-7.5s7.5 3.357 7.5 7.5v63c0 4.143-3.357 7.5-7.5 7.5z" fill="#717ed4" data-original="#717ed4" class=""></path><path d="m321 467.5c-4.143 0-7.5-3.357-7.5-7.5v-63c0-4.143 3.357-7.5 7.5-7.5s7.5 3.357 7.5 7.5v63c0 4.143-3.357 7.5-7.5 7.5z" fill="#717ed4" data-original="#717ed4" class=""></path><path d="m415 370.5c-4.143 0-7.5-3.357-7.5-7.5v-63c0-4.143 3.357-7.5 7.5-7.5s7.5 3.357 7.5 7.5v63c0 4.143-3.357 7.5-7.5 7.5z" fill="#717ed4" data-original="#717ed4" class=""></path><path d="m392.624 187.661h45.583v36.205h-45.583z" fill="#717ed4" data-original="#717ed4" class=""></path></g><path xmlns="http://www.w3.org/2000/svg" d="m392.624 187.661h20.793v36.205h-20.793z" fill="#5766cc" data-original="#5766cc"></path></g></svg>