<svg xmlns="http://www.w3.org/2000/svg" version="1.1" xmlns:xlink="http://www.w3.org/1999/xlink" xmlns:svgjs="http://svgjs.com/svgjs" width="512" height="512" x="0" y="0" viewBox="0 0 512 512.001" style="enable-background:new 0 0 512 512" xml:space="preserve" class=""><g><path xmlns="http://www.w3.org/2000/svg" d="m148.15625 512v-239.5625c0-32.992188-26.839844-59.832031-59.832031-59.832031h-28.492188c-32.992187 0-59.832031 26.839843-59.832031 59.832031v239.5625zm0 0" fill="#f8c9af" data-original="#f8c9af" class=""></path><path xmlns="http://www.w3.org/2000/svg" d="m88.324219 212.605469h-28.492188c-.273437 0-.542969.015625-.816406.023437 32.617187.4375 59.015625 27.09375 59.015625 59.8125v239.558594h30.125v-239.558594c0-32.996094-26.839844-59.835937-59.832031-59.835937zm0 0" fill="#ffb19d" data-original="#ffb19d" class=""></path><path xmlns="http://www.w3.org/2000/svg" d="m74.082031 162.917969c-25.558593 0-46.351562 20.789062-46.351562 46.347656v107.082031c0 25.554688 20.792969 46.347656 46.351562 46.347656 25.554688 0 46.347657-20.792968 46.347657-46.347656v-107.082031c0-25.558594-20.792969-46.347656-46.347657-46.347656zm0 0" fill="#d2f1f7" data-original="#d2f1f7" class=""></path><path xmlns="http://www.w3.org/2000/svg" d="m74.082031 162.917969c-5.273437 0-10.335937.894531-15.0625 2.523437 18.179688 6.269532 31.285157 23.539063 31.285157 43.824219v107.082031c0 20.28125-13.105469 37.554688-31.285157 43.820313 4.726563 1.628906 9.789063 2.527343 15.0625 2.527343 25.554688 0 46.347657-20.792968 46.347657-46.347656v-107.082031c0-25.558594-20.792969-46.347656-46.347657-46.347656zm0 0" fill="#96e5ff" data-original="#96e5ff" class=""></path><path xmlns="http://www.w3.org/2000/svg" d="m323.191406 512v-299.8125c0-32.992188-26.839844-59.832031-59.832031-59.832031h-28.492187c-32.992188 0-59.835938 26.839843-59.835938 59.832031v299.8125zm0 0" fill="#f8c9af" data-original="#f8c9af" class=""></path><path xmlns="http://www.w3.org/2000/svg" d="m496.050781 512v-239.5625c0-32.992188-26.839843-59.832031-59.832031-59.832031h-28.492188c-32.992187 0-59.832031 26.839843-59.832031 59.832031v239.5625zm0 0" fill="#f8c9af" data-original="#f8c9af" class=""></path><path xmlns="http://www.w3.org/2000/svg" d="m263.359375 152.355469h-28.492187c-.273438 0-.542969.019531-.816407.023437 32.617188.441406 59.015625 27.09375 59.015625 59.8125v299.808594h30.125v-299.808594c0-32.992187-26.839844-59.835937-59.832031-59.835937zm0 0" fill="#ffb19d" data-original="#ffb19d" class=""></path><path xmlns="http://www.w3.org/2000/svg" d="m436.21875 212.605469h-28.492188c-.273437 0-.542968.015625-.816406.023437 32.617188.4375 59.015625 27.09375 59.015625 59.8125v239.558594h30.125v-239.558594c0-32.996094-26.839843-59.835937-59.832031-59.835937zm0 0" fill="#ffb19d" data-original="#ffb19d" class=""></path><path xmlns="http://www.w3.org/2000/svg" d="m160.410156 103.589844-17.714844-9.6875-9.683593-17.710938c-1.320313-2.414062-3.855469-3.917968-6.609375-3.917968s-5.285156 1.503906-6.605469 3.917968l-9.6875 17.710938-17.714844 9.6875c-2.414062 1.320312-3.917969 3.855468-3.917969 6.609375 0 2.753906 1.503907 5.285156 3.917969 6.605469l17.714844 9.6875 9.6875 17.710937c1.320313 2.417969 3.851563 3.917969 6.605469 3.917969s5.289062-1.5 6.609375-3.917969l9.683593-17.710937 17.714844-9.6875c2.414063-1.320313 3.917969-3.855469 3.917969-6.605469 0-2.753907-1.503906-5.289063-3.917969-6.609375zm0 0" fill="#ffc259" data-original="#ffc259"></path><path xmlns="http://www.w3.org/2000/svg" d="m391.605469 103.589844-17.714844-9.6875-9.6875-17.710938c-1.320313-2.414062-3.851563-3.917968-6.605469-3.917968s-5.285156 1.503906-6.609375 3.917968l-9.683593 17.710938-17.714844 9.6875c-2.414063 1.320312-3.917969 3.855468-3.917969 6.609375 0 2.75 1.503906 5.285156 3.917969 6.605469l17.714844 9.6875 9.683593 17.710937c1.324219 2.417969 3.855469 3.917969 6.609375 3.917969s5.285156-1.5 6.605469-3.917969l9.6875-17.710937 17.714844-9.6875c2.414062-1.320313 3.914062-3.855469 3.914062-6.605469 0-2.753907-1.5-5.289063-3.914062-6.609375zm0 0" fill="#ffc259" data-original="#ffc259"></path><path xmlns="http://www.w3.org/2000/svg" d="m285.507812 36.691406-21.1875-11.585937-11.585937-21.1875c-1.324219-2.414063-3.855469-3.917969-6.609375-3.917969-2.75 0-5.285156 1.503906-6.605469 3.917969l-11.589843 21.1875-21.1875 11.585937c-2.414063 1.320313-3.917969 3.855469-3.917969 6.609375 0 2.753907 1.503906 5.285157 3.917969 6.605469l21.1875 11.589844 11.589843 21.1875c1.320313 2.414062 3.851563 3.917968 6.605469 3.917968s5.285156-1.503906 6.609375-3.917968l11.585937-21.1875 21.1875-11.585938c2.414063-1.320312 3.917969-3.855468 3.917969-6.609375 0-2.753906-1.5-5.289062-3.917969-6.609375zm0 0" fill="#ffc259" data-original="#ffc259"></path><path xmlns="http://www.w3.org/2000/svg" d="m250.117188 102.667969c-25.558594 0-46.347657 20.789062-46.347657 46.347656v107.082031c0 25.554688 20.792969 46.347656 46.347657 46.347656 25.554687 0 46.347656-20.792968 46.347656-46.347656v-107.082031c0-25.558594-20.792969-46.347656-46.347656-46.347656zm0 0" fill="#5199e8" data-original="#5199e8"></path><path xmlns="http://www.w3.org/2000/svg" d="m43.335938 244.90625c-1.632813 0-3.269532-.625-4.519532-1.871094-2.496094-2.496094-2.496094-6.546875 0-9.042968l48.851563-48.851563c2.496093-2.496094 6.546875-2.496094 9.042969 0 2.496093 2.496094 2.496093 6.546875 0 9.042969l-48.851563 48.851562c-1.25 1.246094-2.882813 1.871094-4.523437 1.871094zm0 0" fill="#4890e3" data-original="#4890e3" class=""></path><path xmlns="http://www.w3.org/2000/svg" d="m43.335938 292.699219c-1.632813 0-3.269532-.625-4.519532-1.871094-2.496094-2.496094-2.496094-6.546875 0-9.042969l60.648438-60.648437c2.496094-2.496094 6.546875-2.496094 9.042968 0 2.496094 2.496093 2.496094 6.546875 0 9.042969l-60.648437 60.648437c-1.25 1.246094-2.882813 1.871094-4.523437 1.871094zm0 0" fill="#4890e3" data-original="#4890e3" class=""></path><path xmlns="http://www.w3.org/2000/svg" d="m53.722656 330.105469c-1.632812 0-3.269531-.621094-4.519531-1.871094-2.496094-2.496094-2.496094-6.546875 0-9.042969l51.585937-51.585937c2.496094-2.496094 6.546876-2.496094 9.042969 0 2.496094 2.496093 2.496094 6.546875 0 9.042969l-51.585937 51.585937c-1.25 1.25-2.886719 1.871094-4.523438 1.871094zm0 0" fill="#4890e3" data-original="#4890e3" class=""></path><path xmlns="http://www.w3.org/2000/svg" d="m421.972656 162.917969c-25.558594 0-46.347656 20.789062-46.347656 46.347656v107.082031c0 25.554688 20.792969 46.347656 46.347656 46.347656 25.554688 0 46.347656-20.792968 46.347656-46.347656v-107.082031c0-25.558594-20.792968-46.347656-46.347656-46.347656zm0 0" fill="#ff8eb2" data-original="#ff8eb2"></path><path xmlns="http://www.w3.org/2000/svg" d="m160.410156 103.589844-17.714844-9.6875-9.683593-17.710938c-1.320313-2.414062-3.855469-3.917968-6.609375-3.917968s-5.285156 1.503906-6.605469 3.917968l-8.457031 15.457032 1.234375 2.253906 17.710937 9.6875c2.414063 1.320312 3.917969 3.855468 3.917969 6.609375 0 2.75-1.503906 5.285156-3.917969 6.605469l-17.710937 9.6875-1.234375 2.253906 8.457031 15.457031c1.320313 2.417969 3.851563 3.917969 6.605469 3.917969s5.289062-1.5 6.609375-3.917969l9.683593-17.710937 17.714844-9.6875c2.414063-1.320313 3.917969-3.855469 3.917969-6.605469 0-2.753907-1.503906-5.289063-3.917969-6.609375zm0 0" fill="#ffac1f" data-original="#ffac1f" class=""></path><path xmlns="http://www.w3.org/2000/svg" d="m391.605469 103.589844-17.714844-9.6875-9.6875-17.710938c-1.320313-2.414062-3.851563-3.917968-6.605469-3.917968s-5.285156 1.503906-6.609375 3.917968l-8.453125 15.460938 1.230469 2.253906 17.714844 9.683594c2.414062 1.324218 3.917969 3.855468 3.917969 6.609375 0 2.753906-1.503907 5.285156-3.917969 6.605469l-17.714844 9.6875-1.230469 2.253906 8.453125 15.460937c1.320313 2.414063 3.855469 3.914063 6.609375 3.914063s5.285156-1.5 6.605469-3.914063l9.6875-17.714843 17.710937-9.6875c2.417969-1.320313 3.917969-3.851563 3.917969-6.605469 0-2.753907-1.5-5.289063-3.914062-6.609375zm0 0" fill="#ffac1f" data-original="#ffac1f" class=""></path><path xmlns="http://www.w3.org/2000/svg" d="m285.507812 36.691406-21.1875-11.585937-11.585937-21.1875c-1.324219-2.414063-3.855469-3.917969-6.609375-3.917969-2.75 0-5.285156 1.503906-6.605469 3.917969l-8.457031 15.460937 3.132812 5.726563 21.1875 11.589843c2.417969 1.320313 3.917969 3.851563 3.917969 6.605469 0 2.753907-1.5 5.289063-3.917969 6.609375l-21.1875 11.585938-3.132812 5.730468 8.457031 15.457032c1.320313 2.417968 3.851563 3.917968 6.605469 3.917968s5.289062-1.5 6.609375-3.917968l11.585937-21.1875 21.1875-11.585938c2.417969-1.320312 3.917969-3.855468 3.917969-6.609375 0-2.753906-1.5-5.289062-3.917969-6.609375zm0 0" fill="#ffac1f" data-original="#ffac1f" class=""></path><path xmlns="http://www.w3.org/2000/svg" d="m250.117188 102.667969c-5.273438 0-10.335938.898437-15.0625 2.527343 18.183593 6.265626 31.285156 23.535157 31.285156 43.820313v107.082031c0 20.28125-13.101563 37.554688-31.285156 43.820313 4.726562 1.628906 9.789062 2.527343 15.0625 2.527343 25.554687 0 46.347656-20.792968 46.347656-46.347656v-107.082031c0-25.558594-20.792969-46.347656-46.347656-46.347656zm0 0" fill="#308fff" data-original="#308fff" class=""></path><path xmlns="http://www.w3.org/2000/svg" d="m421.972656 162.917969c-5.273437 0-10.335937.894531-15.0625 2.523437 18.183594 6.269532 31.285156 23.539063 31.285156 43.824219v107.082031c0 20.28125-13.101562 37.554688-31.285156 43.820313 4.726563 1.628906 9.789063 2.527343 15.0625 2.527343 25.554688 0 46.347656-20.792968 46.347656-46.347656v-107.082031c0-25.558594-20.792968-46.347656-46.347656-46.347656zm0 0" fill="#ff78a3" data-original="#ff78a3"></path><path xmlns="http://www.w3.org/2000/svg" d="m456.042969 247.035156c-1.761719 0-3.519531-.667968-4.859375-2.011718l-52.515625-52.515626c-2.6875-2.683593-2.6875-7.035156 0-9.71875 2.683593-2.6875 7.035156-2.6875 9.71875 0l52.515625 52.515626c2.683594 2.683593 2.683594 7.035156 0 9.71875-1.34375 1.34375-3.101563 2.011718-4.859375 2.011718zm0 0" fill="#ffb7ce" data-original="#ffb7ce"></path><path xmlns="http://www.w3.org/2000/svg" d="m456.042969 298.414062c-1.761719 0-3.519531-.671874-4.859375-2.011718l-65.199219-65.199219c-2.683594-2.683594-2.683594-7.035156 0-9.71875s7.035156-2.683594 9.722656 0l65.195313 65.195313c2.683594 2.683593 2.683594 7.035156 0 9.722656-1.34375 1.339844-3.101563 2.011718-4.859375 2.011718zm0 0" fill="#ffb7ce" data-original="#ffb7ce"></path><path xmlns="http://www.w3.org/2000/svg" d="m444.878906 338.628906c-1.761718 0-3.519531-.671875-4.859375-2.015625l-55.457031-55.457031c-2.683594-2.683594-2.683594-7.035156 0-9.71875s7.035156-2.683594 9.71875 0l55.457031 55.457031c2.683594 2.683594 2.683594 7.035157 0 9.71875-1.34375 1.34375-3.101562 2.015625-4.859375 2.015625zm0 0" fill="#ffb7ce" data-original="#ffb7ce"></path><path xmlns="http://www.w3.org/2000/svg" d="m286.476562 191.75c-34.683593 0-62.898437-24.386719-62.898437-54.359375 0-3.675781 2.984375-6.660156 6.660156-6.660156 3.679688 0 6.660157 2.984375 6.660157 6.660156 0 22.628906 22.242187 41.039063 49.578124 41.039063 3.679688 0 6.660157 2.980468 6.660157 6.660156 0 3.675781-2.980469 6.660156-6.660157 6.660156zm0 0" fill="#3277d9" data-original="#3277d9"></path><path xmlns="http://www.w3.org/2000/svg" d="m270.652344 228.574219c-16.214844-.957031-32.179688-7.21875-44.402344-17.71875-8.589844-7.382813-13.480469-15.4375-13.765625-22.671875-.144531-3.675782 2.71875-6.773438 6.394531-6.917969 3.675782-.140625 6.769532 2.71875 6.914063 6.394531.109375 2.699219 2.972656 7.792969 9.140625 13.09375 9.699218 8.335938 27.027344 16.460938 46.566406 14.265625 3.660156-.410156 6.953125 2.21875 7.363281 5.875.410157 3.652344-2.21875 6.949219-5.875 7.359375-4.089843.460938-8.222656.5625-12.335937.320313zm0 0" fill="#3277d9" data-original="#3277d9"></path><path xmlns="http://www.w3.org/2000/svg" d="m278.796875 268.878906c-.023437 0-.050781 0-.074219 0-33.003906-.359375-58.007812-18.105468-64.34375-26.148437-.902344-1.144531-3.652344-4.632813-2.695312-8.816407.820312-3.585937 4.394531-5.832031 7.976562-5.007812 2.757813.628906 4.71875 2.886719 5.109375 5.527344 3.53125 4.964844 25.433594 20.816406 54.097657 21.125 3.679687.042968 6.628906 3.054687 6.589843 6.734375-.042969 3.652343-3.015625 6.585937-6.660156 6.585937zm-54.125-32.003906c-.003906 0-.003906.003906-.003906.007812 0-.003906 0-.007812.003906-.007812zm0 0" fill="#3277d9" data-original="#3277d9"></path><g xmlns="http://www.w3.org/2000/svg" fill="#ffb19d"><path d="m98.085938 445.511719h-48.011719c-4.160157 0-7.53125-3.371094-7.53125-7.53125 0-4.15625 3.371093-7.53125 7.53125-7.53125h48.011719c4.15625 0 7.53125 3.375 7.53125 7.53125 0 4.160156-3.375 7.53125-7.53125 7.53125zm0 0" fill="#ffb19d" data-original="#ffb19d" class=""></path><path d="m98.085938 472.113281h-48.011719c-4.160157 0-7.53125-3.371093-7.53125-7.53125 0-4.15625 3.371093-7.53125 7.53125-7.53125h48.011719c4.15625 0 7.53125 3.375 7.53125 7.53125 0 4.160157-3.375 7.53125-7.53125 7.53125zm0 0" fill="#ffb19d" data-original="#ffb19d" class=""></path><path d="m273.117188 445.511719h-48.011719c-4.160157 0-7.53125-3.371094-7.53125-7.53125 0-4.15625 3.371093-7.53125 7.53125-7.53125h48.011719c4.160156 0 7.53125 3.375 7.53125 7.53125 0 4.160156-3.371094 7.53125-7.53125 7.53125zm0 0" fill="#ffb19d" data-original="#ffb19d" class=""></path><path d="m273.117188 472.113281h-48.011719c-4.160157 0-7.53125-3.371093-7.53125-7.53125 0-4.15625 3.371093-7.53125 7.53125-7.53125h48.011719c4.160156 0 7.53125 3.375 7.53125 7.53125 0 4.160157-3.371094 7.53125-7.53125 7.53125zm0 0" fill="#ffb19d" data-original="#ffb19d" class=""></path><path d="m448.152344 445.511719h-48.011719c-4.160156 0-7.53125-3.371094-7.53125-7.53125 0-4.15625 3.371094-7.53125 7.53125-7.53125h48.011719c4.15625 0 7.53125 3.375 7.53125 7.53125 0 4.160156-3.375 7.53125-7.53125 7.53125zm0 0" fill="#ffb19d" data-original="#ffb19d" class=""></path><path d="m448.152344 472.113281h-48.011719c-4.160156 0-7.53125-3.371093-7.53125-7.53125 0-4.15625 3.371094-7.53125 7.53125-7.53125h48.011719c4.15625 0 7.53125 3.375 7.53125 7.53125 0 4.160157-3.375 7.53125-7.53125 7.53125zm0 0" fill="#ffb19d" data-original="#ffb19d" class=""></path></g></g></svg>