<svg xmlns="http://www.w3.org/2000/svg" version="1.1" xmlns:xlink="http://www.w3.org/1999/xlink" xmlns:svgjs="http://svgjs.com/svgjs" width="512" height="512" x="0" y="0" viewBox="0 0 64 64" style="enable-background:new 0 0 512 512" xml:space="preserve" class=""><g><g xmlns="http://www.w3.org/2000/svg" id="_4._Write_on_Whiteboard" data-name="4. Write on Whiteboard"><rect fill="#f8cf6d" height="35" rx="3" width="46" x="12.48" y="3" data-original="#f8cf6d" class=""></rect><rect fill="#fffeff" height="31" rx="1" width="42" x="14.48" y="5" data-original="#fffeff" class=""></rect><path d="m41.48 22a1 1 0 0 1 -1-.73l-2-7a1 1 0 0 1 1.93-.54l2 7a1 1 0 0 1 -.93 1.27z" fill="#ee7231" data-original="#ee7231"></path><path d="m23.48 3h-4v-1a2 2 0 0 1 4 0z" fill="#f8cf6d" data-original="#f8cf6d" class=""></path><path d="m51.48 3h-4v-1a2 2 0 0 1 4 0z" fill="#f8cf6d" data-original="#f8cf6d" class=""></path><circle cx="20.48" cy="16" fill="#88b8f9" r="6" data-original="#88b8f9" class=""></circle><path d="m41.72 16.53a2 2 0 0 0 -2.82.24l-6.48 7.72c-7.8-.64-3.42-.49-17.94-.49a3 3 0 0 0 -2.72 1.9l-6.1 15.25a2 2 0 0 0 3.63 1.7l4.71-8.61c-.47 10.3.58-12.69-.53 11.76v16a2 2 0 0 0 4 .25c1.87-15 2-16 2-16.25h2c0 .47.33 2.85 2 16.25a2 2 0 0 0 4-.25v-16c-1.52-33.25-.1-2.08-.73-16l7-.58a2.16 2.16 0 0 0 1.6-.91l6.67-9.26a2 2 0 0 0 -.29-2.72z" fill="#2f79f0" data-original="#2f79f0"></path><path d="m30.48 17a1 1 0 0 1 -.92-1.39l1.5-3.5a1 1 0 0 1 1.62-.32l1.21 1.21h1.59a1 1 0 0 1 0 2c-2.63 0-2.25.17-3.17-.75l-.91 2.14a1 1 0 0 1 -.92.61z" fill="#ee7231" data-original="#ee7231"></path></g></g></svg>