<svg xmlns="http://www.w3.org/2000/svg" version="1.1" xmlns:xlink="http://www.w3.org/1999/xlink" xmlns:svgjs="http://svgjs.com/svgjs" width="512" height="512" x="0" y="0" viewBox="0 0 512.001 512.001" style="enable-background:new 0 0 512 512" xml:space="preserve" class=""><g>
<path xmlns="http://www.w3.org/2000/svg" style="" d="M123.004,504.002h153.989c8.167,0,16.158-2.476,22.878-7.116  c47.291-32.653,77.835-87.822,76.055-150.041c-2.577-90.051-74.77-164.906-164.685-170.492C108.947,169.997,24,251.08,24,352.003  c0,60.126,30.172,113.177,76.182,144.92C106.886,501.547,114.86,504.002,123.004,504.002z" fill="#e4eaf8" data-original="#e4eaf8" class=""></path>
<path xmlns="http://www.w3.org/2000/svg" style="" d="M120,352.002c0-84.959,49.256-155.846,114.769-172.358c-7.699-1.561-15.511-2.794-23.528-3.292  C108.947,169.996,24,251.079,24,352.002c0,60.126,30.172,113.177,76.182,144.92c6.704,4.625,14.678,7.08,22.822,7.08h77.999  c-6.664,0-13.188-2.455-18.673-7.08C144.686,465.178,120,412.128,120,352.002z" fill="#d5dced" data-original="#d5dced" class=""></path>
<path xmlns="http://www.w3.org/2000/svg" style="" d="M232,80.002h-64c-4.418,0-8,3.582-8,8v92.612h80V88.002C240,83.583,236.418,80.002,232,80.002z" fill="#ffc850" data-original="#ffc850"></path>
<path xmlns="http://www.w3.org/2000/svg" style="" d="M216,24.002h-32c-4.418,0-8,3.582-8,8v48h48v-48C224,27.583,220.418,24.002,216,24.002z" fill="#ffdc64" data-original="#ffdc64"></path>
<ellipse xmlns="http://www.w3.org/2000/svg" style="" cx="455.999" cy="280" rx="48" ry="64" fill="#ff507d" data-original="#ff507d" class=""></ellipse>
<path xmlns="http://www.w3.org/2000/svg" style="" d="M343.762,343.794c-0.217-3.775-3.164-6.908-6.922-7.329c-2.65-0.297-5.563-0.463-8.807-0.463  c-31.992,0-31.992,16-63.983,16c-2.938,0-5.606-0.135-8.054-0.38H144.004c-2.448,0.245-5.116,0.38-8.054,0.38  c-31.992,0-31.992-16-63.983-16c-3.244,0-6.157,0.166-8.807,0.463c-3.758,0.421-6.704,3.554-6.922,7.329  C56.082,346.51,56,349.247,56,352.002c0,47.303,23.3,91.624,62.33,118.564c1.367,0.944,3.013,1.436,4.675,1.436h153.991  c1.661,0,3.308-0.493,4.675-1.436c39.03-26.939,62.33-71.26,62.33-118.564C344,349.247,343.919,346.51,343.762,343.794z" fill="#ff507d" data-original="#ff507d" class=""></path>
<path xmlns="http://www.w3.org/2000/svg" style="" d="M240,392.002h-80c-8.837,0-16-7.163-16-16v-64c0-8.837,7.163-16,16-16h80c8.837,0,16,7.163,16,16v64  C256,384.838,248.836,392.002,240,392.002z" fill="#ffdc64" data-original="#ffdc64"></path>
<path xmlns="http://www.w3.org/2000/svg" style="" d="M120.061,350.306c-17.357-4.105-22.529-14.304-48.094-14.304c-3.245,0-6.157,0.166-8.808,0.463  c-3.757,0.421-6.704,3.554-6.921,7.329c-0.157,2.717-0.238,5.453-0.238,8.208c0,47.303,23.3,91.624,62.33,118.563  c1.367,0.944,3.014,1.437,4.675,1.437h35.775c-24.026-31.436-38.78-73.585-38.78-120C120,351.43,120.057,350.876,120.061,350.306z" fill="#d23c69" data-original="#d23c69"></path>
<path xmlns="http://www.w3.org/2000/svg" style="" d="M184,132.614V80.002h-16c-4.418,0-8,3.582-8,8v92.612h80v-16h-24  C198.327,164.614,184,150.287,184,132.614z" fill="#eab049" data-original="#eab049"></path>
<path xmlns="http://www.w3.org/2000/svg" style="" d="M200,24.002h-16c-4.418,0-8,3.582-8,8v48h16v-48C192,27.583,195.581,24.002,200,24.002z" fill="#ffc850" data-original="#ffc850"></path>
<path xmlns="http://www.w3.org/2000/svg" style="" d="M440,264.002c0-19.13,6.328-36.252,16.307-47.979c-0.104-0.001-0.203-0.021-0.307-0.021  c-26.51,0-48,28.654-48,64s21.49,64,48,64c12.162,0,23.234-6.079,31.693-16.021C461.326,327.759,440,299.21,440,264.002z" fill="#d23c69" data-original="#d23c69"></path>
<path xmlns="http://www.w3.org/2000/svg" d="M463.757,209.067c-3.614-93.792-81.031-168.985-175.693-168.985h-56.629V31.55c0-8.556-6.96-15.516-15.516-15.516h-32.064  c-8.556,0-15.516,6.96-15.516,15.516v40.597h-0.516c-8.556,0-15.516,6.96-15.516,15.516v86.834  c-28.978,7.701-55.743,22.497-78.304,43.699c-18.108,17.018-32.361,37.124-42.363,59.759c-10.356,23.437-15.607,48.415-15.607,74.24  c0,60.415,29.748,117.008,79.576,151.386c7.985,5.509,17.365,8.42,27.127,8.42h154.299c9.771,0,19.171-2.925,27.186-8.459  c51.535-35.583,81.233-94.174,79.444-156.73c-2.338-81.705-59.69-151.464-136.197-172.189v-86.96c0-8.556-6.96-15.516-15.516-15.516  h-0.516V55.082h56.629c86.407,0,157.106,68.492,160.685,154.034c-27.046,4.821-47.943,34.784-47.943,70.934  c0,39.496,24.94,71.629,55.597,71.629s55.597-32.133,55.597-71.629C512,243.767,490.948,213.72,463.757,209.067z M368.671,347.241  c1.644,57.457-25.635,111.272-72.972,143.958c-5.498,3.796-11.952,5.803-18.664,5.803H122.736c-6.706,0-13.141-1.994-18.609-5.767  c-45.77-31.578-73.095-83.556-73.095-139.04c0-47.095,18.909-90.802,53.243-123.069c29.843-28.046,67.693-43.902,108.112-45.625  v105.082h-32.581c-12.996,0-23.532,10.536-23.532,23.532v32.574c-0.002,0.002-0.003,0.003-0.005,0.005  c-14.645,0.089-21.411-3.295-29.263-7.222c-8.255-4.128-17.612-8.808-35.411-8.808c-6.192,0-11.701,0.555-16.84,1.697  c-3.157,0.702-5.556,3.298-5.88,6.516c-0.517,5.129-0.779,10.283-0.779,15.319c0,49.875,24.569,96.602,65.721,124.994  c2.569,1.772,5.736,2.749,8.918,2.749h154.299c3.185,0,6.369-0.987,8.968-2.78c42.561-29.388,67.088-77.772,65.61-129.426  c-0.106-3.727-0.472-7.317-0.828-10.822c-0.324-3.188-2.632-5.841-5.76-6.538c-5.094-1.135-10.555-1.694-16.69-1.707  c-3.818-0.008-7.21,2.783-7.663,6.574c-0.545,4.556,2.998,8.426,7.444,8.426c2.962,0,5.705,0.148,8.28,0.449  c0.105,1.356,0.185,2.7,0.223,4.047c1.333,46.556-20.775,90.166-59.138,116.654c-0.09,0.062-0.272,0.125-0.446,0.125H122.736  c-0.194,0-0.356-0.065-0.4-0.095c-37.094-25.592-59.24-67.703-59.24-112.647c0-2.665,0.082-5.368,0.244-8.084  c2.569-0.3,5.305-0.448,8.255-0.448c14.257,0,20.951,3.348,28.701,7.224c8.255,4.128,17.612,8.808,35.411,8.808  c0.191,0,0.377-0.005,0.566-0.007v16.555c0,12.997,10.536,23.533,23.533,23.533h32.58v10.281  c-9.308,3.139-16.032,11.946-16.032,22.3v8.016c0,4.142,3.358,7.5,7.5,7.5h32.064c4.142,0,7.5-3.358,7.5-7.5v-8.016  c0-10.354-6.724-19.16-16.032-22.3V399.78h32.581c12.996,0,23.532-10.536,23.532-23.532V359.69c0.153,0.001,0.304,0.005,0.458,0.005  c14.114,0,27.042-4.693,35.068-8.778c3.358-1.709,5.036-5.541,3.769-9.089l-0.072-0.201c-1.458-4.083-6.123-6.014-10.04-4.157l0,0  c-7.839,3.917-14.597,7.295-29.179,7.223c-0.002-0.002-0.003-0.002-0.004-0.004v-32.575c0-12.996-10.536-23.532-23.532-23.532  h-32.581V183.523c1.099,0.048,2.198,0.085,3.299,0.154C296.804,189.027,366.2,260.874,368.671,347.241z M199.887,423.824  c4.705,0,8.532,3.828,8.532,8.532v0.516h-17.064v-0.516C191.355,427.652,195.182,423.824,199.887,423.824z M159.806,384.776  c-4.705,0-8.532-3.828-8.532-8.533v-64.129c0-4.705,3.828-8.532,8.532-8.532h80.161c4.705,0,8.532,3.828,8.532,8.532v64.129  c0,4.705-3.828,8.533-8.532,8.533H159.806z M232.468,87.663v83.574c-6.833-1.236-13.789-2.093-20.852-2.531  c-3.858-0.24-7.699-0.348-11.525-0.355c-0.068-0.002-0.135-0.01-0.204-0.01c-0.071,0-0.139,0.009-0.209,0.01  c-10.97,0.004-21.789,0.958-32.371,2.833V87.663c0-0.285,0.231-0.516,0.516-0.516h64.129  C232.236,87.147,232.468,87.378,232.468,87.663z M183.339,72.147V31.55c0-0.285,0.231-0.516,0.516-0.516h32.064  c0.285,0,0.516,0.231,0.516,0.516v40.597H183.339z M456.403,336.679c-22.385,0-40.597-25.404-40.597-56.629  s18.211-56.629,40.597-56.629S497,248.825,497,280.05S478.788,336.679,456.403,336.679z" fill="#000000" data-original="#000000" class=""></path>
<path xmlns="http://www.w3.org/2000/svg" d="M223.935,320.647h-48.096c-4.142,0-7.5,3.358-7.5,7.5s3.358,7.5,7.5,7.5h48.097c4.142,0,7.5-3.358,7.5-7.5  S228.077,320.647,223.935,320.647z" fill="#000000" data-original="#000000" class=""></path>
<path xmlns="http://www.w3.org/2000/svg" d="M215.919,352.711h-32.064c-4.142,0-7.5,3.358-7.5,7.5s3.358,7.5,7.5,7.5h32.064c4.142,0,7.5-3.358,7.5-7.5  S220.061,352.711,215.919,352.711z" fill="#000000" data-original="#000000" class=""></path>
<path xmlns="http://www.w3.org/2000/svg" d="M456.403,240.486c-4.142,0-7.5,3.358-7.5,7.5s3.358,7.5,7.5,7.5c2.193,0,8.532,8.446,8.532,24.564  c0,4.142,3.358,7.5,7.5,7.5s7.5-3.358,7.5-7.5C479.935,257.494,469.819,240.486,456.403,240.486z" fill="#000000" data-original="#000000" class=""></path>
<path xmlns="http://www.w3.org/2000/svg" d="M103.177,47.582c0-4.142-3.358-7.5-7.5-7.5H7.5c-4.142,0-7.5,3.358-7.5,7.5s3.358,7.5,7.5,7.5h88.177  C99.819,55.082,103.177,51.724,103.177,47.582z" fill="#000000" data-original="#000000" class=""></path>
<path xmlns="http://www.w3.org/2000/svg" d="M133.939,58.343l-40.081,10.02c-4.019,1.004-6.462,5.076-5.457,9.095c0.852,3.408,3.91,5.683,7.27,5.683  c0.602,0,1.214-0.073,1.825-0.226l40.081-10.02c4.019-1.004,6.462-5.076,5.457-9.095S137.954,57.337,133.939,58.343z" fill="#000000" data-original="#000000" class=""></path>
<path xmlns="http://www.w3.org/2000/svg" d="M61.795,76.379l-16.033,4.008c-4.019,1.004-6.462,5.077-5.457,9.095c0.852,3.408,3.91,5.683,7.27,5.683  c0.602,0,1.214-0.073,1.825-0.226l16.033-4.008c4.019-1.004,6.462-5.077,5.457-9.095C69.885,77.817,65.811,75.372,61.795,76.379z" fill="#000000" data-original="#000000" class=""></path>
<path xmlns="http://www.w3.org/2000/svg" d="M93.858,26.801l40.101,10.025c0.61,0.153,1.222,0.226,1.825,0.226c3.36,0,6.418-2.275,7.27-5.683  c1.005-4.018-1.438-8.09-5.457-9.095L97.495,12.25c-4.012-1.004-8.09,1.438-9.095,5.457C87.396,21.725,89.839,25.797,93.858,26.801z  " fill="#000000" data-original="#000000" class=""></path>
<path xmlns="http://www.w3.org/2000/svg" d="M45.762,14.778l16.033,4.008c0.61,0.153,1.222,0.226,1.825,0.226c3.36,0,6.418-2.275,7.27-5.683  c1.005-4.018-1.438-8.09-5.457-9.095L49.399,0.226c-4.014-1.005-8.09,1.438-9.095,5.457C39.3,9.701,41.743,13.773,45.762,14.778z" fill="#000000" data-original="#000000" class=""></path>
<g xmlns="http://www.w3.org/2000/svg">
</g>
<g xmlns="http://www.w3.org/2000/svg">
</g>
<g xmlns="http://www.w3.org/2000/svg">
</g>
<g xmlns="http://www.w3.org/2000/svg">
</g>
<g xmlns="http://www.w3.org/2000/svg">
</g>
<g xmlns="http://www.w3.org/2000/svg">
</g>
<g xmlns="http://www.w3.org/2000/svg">
</g>
<g xmlns="http://www.w3.org/2000/svg">
</g>
<g xmlns="http://www.w3.org/2000/svg">
</g>
<g xmlns="http://www.w3.org/2000/svg">
</g>
<g xmlns="http://www.w3.org/2000/svg">
</g>
<g xmlns="http://www.w3.org/2000/svg">
</g>
<g xmlns="http://www.w3.org/2000/svg">
</g>
<g xmlns="http://www.w3.org/2000/svg">
</g>
<g xmlns="http://www.w3.org/2000/svg">
</g>
</g></svg>