<svg xmlns="http://www.w3.org/2000/svg" version="1.1" xmlns:xlink="http://www.w3.org/1999/xlink" xmlns:svgjs="http://svgjs.com/svgjs" width="512" height="512" x="0" y="0" viewBox="0 0 512 512" style="enable-background:new 0 0 512 512" xml:space="preserve" class=""><g><path xmlns="http://www.w3.org/2000/svg" d="m488 488-72-368h-320l-72 368z" fill="#7c92ff" data-original="#ffc431" class=""></path><path xmlns="http://www.w3.org/2000/svg" d="m216 488h-192l2.44-12.45 69.56-355.55h48l69.56 355.55z" fill="#0f5d64" data-original="#ffa100" class=""></path><path xmlns="http://www.w3.org/2000/svg" d="m216 488h-12.5l-83.5-69.59-83.5 69.59h-12.5l2.44-12.45 85.56-71.3v-84.25h16v84.25l85.56 71.3z" fill="#ffffff" data-original="#f78e00" class=""></path><path xmlns="http://www.w3.org/2000/svg" d="m112 120h16v144h-16z" fill="#ffffff" data-original="#f78e00" class=""></path><path xmlns="http://www.w3.org/2000/svg" d="m112 280h16v16h-16z" fill="#ffffff" data-original="#f78e00" class=""></path><g xmlns="http://www.w3.org/2000/svg" fill="#ffe28f"><circle cx="328" cy="272" r="32" fill="#767676" data-original="#ffe28f" class=""></circle><path d="m264 336h40v16h-40z" fill="#767676" data-original="#ffe28f" class=""></path><path d="m320 336h80v16h-80z" fill="#767676" data-original="#ffe28f" class=""></path><path d="m248 368h96v16h-96z" fill="#767676" data-original="#ffe28f" class=""></path><path d="m360 368h64v16h-64z" fill="#767676" data-original="#ffe28f" class=""></path></g><path xmlns="http://www.w3.org/2000/svg" d="m312 120h-16v-48a40 40 0 0 0 -80 0v48h-16v-48a56 56 0 0 1 112 0z" fill="#989898" data-original="#ffcc4d" class=""></path><path xmlns="http://www.w3.org/2000/svg" d="m352 184h-16v-112a40 40 0 0 0 -80 0v112h-16v-112a56 56 0 0 1 112 0z" fill="#767676" data-original="#ffe28f" class=""></path><path xmlns="http://www.w3.org/2000/svg" d="m224 176h48v16h-48z" fill="#0f5d64" data-original="#ffa100" class=""></path><path xmlns="http://www.w3.org/2000/svg" d="m320 176h48v16h-48z" fill="#0f5d64" data-original="#ffa100" class=""></path></g></svg>