<svg xmlns="http://www.w3.org/2000/svg" version="1.1" xmlns:xlink="http://www.w3.org/1999/xlink" xmlns:svgjs="http://svgjs.com/svgjs" width="512" height="512" x="0" y="0" viewBox="0 0 512 512" style="enable-background:new 0 0 512 512" xml:space="preserve" class=""><g><g xmlns="http://www.w3.org/2000/svg"><g><path d="m178.557 245.66c1.803 1.756 2.625 4.286 2.2 6.765l-.729 4.249h44.454l-.729-4.249c-.425-2.479.397-5.009 2.2-6.765l6.84-6.662c4.54-4.422 2.035-12.126-4.239-13.037l-9.453-1.373c-2.491-.362-4.645-1.925-5.759-4.181l-4.227-8.559c-2.806-5.68-10.913-5.68-13.718 0l-4.227 8.559c-1.114 2.256-3.268 3.819-5.759 4.181l-9.453 1.373c-6.274.911-8.779 8.615-4.239 13.037z" fill="#f9f097" data-original="#f9f097" class=""></path><path d="m312.433 34.221v52.752c0 4.276 3.466 7.742 7.742 7.742s7.742-3.466 7.742-7.742l-.146-68.511z" fill="#dfaa88" data-original="#dfaa88"></path><g><path d="m259.087 210.455 61.088-9 61.088 9v84.074l-61.088 9-61.088-9v-81.146" fill="#f7cf77" data-original="#f7cf77"></path><path d="m259.087 191.874v3.576 15.005h122.176v-18.581l-61.088-9z" fill="#f4c260" data-original="#f4c260"></path><path d="m299.168 210.455 21.007-9 21.007 9v84.074l-21.007 9-21.007-9z" fill="#f9f097" data-original="#f9f097" class=""></path><path d="m373.443 349.891c3.334-4.984 6.085-11.089 7.819-18.581l-61.088-9-61.088 9c1.734 7.492 4.486 13.597 7.819 18.581l53.268 9z" fill="#dd4772" data-original="#dd4772"></path><path d="m259.087 321.729h122.175c6.768 0 15.865-7.775 15.865-18.1-3.197-5.438-9.096-9.1-15.865-9.1h-122.175c-6.768 0-12.667 3.662-15.864 9.1 0 11.68 9.096 18.1 15.864 18.1z" fill="#ff748f" data-original="#ff748f"></path><path d="m266.907 349.891c14.827 22.165 41.206 22.05 41.206 22.05h24.125s26.379.116 41.206-22.05z" fill="#e8587b" data-original="#e8587b"></path><path d="m299.168 191.874v3.576 15.005h42.014v-18.581l-21.007-9z" fill="#f2e586" data-original="#f2e586"></path><path d="m381.263 312.729h-122.176c-6.768 0-12.667-3.662-15.864-9.1-1.604 2.729-2.54 5.897-2.54 9.29 0 10.157 8.24 18.39 18.404 18.39h122.176c10.165 0 18.405-8.234 18.405-18.39 0-3.393-.936-6.562-2.54-9.29-3.198 5.439-9.097 9.1-15.865 9.1z" fill="#ff577f" data-original="#ff577f" class=""></path><path d="m292.246 86.783c0 12.298 9.089 18.1 15.852 18.1h24.153c6.763 0 15.852-6.919 15.852-18.1-3.195-5.438-9.089-9.1-15.852-9.1h-24.153c-6.763 0-12.657 3.661-15.852 9.1z" fill="#ff748f" data-original="#ff748f"></path><path d="m265.565 136.513c-3.087 4.984-5.415 11.089-6.477 18.581l61.088 9 61.088-9c-1.062-7.491-3.39-13.597-6.477-18.581l-54.61-9z" fill="#dd4772" data-original="#dd4772"></path><path d="m374.785 136.513c-13.731-22.165-42.548-22.049-42.548-22.049h-24.125s-28.817-.116-42.548 22.049z" fill="#e8587b" data-original="#e8587b"></path><path d="m259.073 182.294h122.204c6.763 0 15.852-5.755 15.852-18.1-3.195-5.438-9.089-9.1-15.852-9.1h-122.204c-6.763 0-12.658 3.662-15.852 9.1 0 13.84 9.089 18.1 15.852 18.1z" fill="#ff748f" data-original="#ff748f"></path><g fill="#ff577f"><path d="m381.277 173.294h-122.204c-6.763 0-12.658-3.662-15.852-9.1-1.603 2.729-2.538 5.897-2.538 9.29 0 10.157 8.234 18.39 18.39 18.39h122.204c10.157 0 18.391-8.234 18.391-18.39 0-3.393-.935-6.561-2.538-9.29-3.196 5.438-9.09 9.1-15.853 9.1z" fill="#ff577f" data-original="#ff577f" class=""></path><path d="m332.252 95.883h-24.153c-6.763 0-12.658-3.662-15.852-9.1-1.603 2.729-2.538 5.897-2.538 9.29 0 10.157 8.234 18.39 18.391 18.39h24.153c10.157 0 18.391-8.234 18.391-18.39 0-3.393-.935-6.561-2.538-9.29-3.197 5.438-9.091 9.1-15.854 9.1z" fill="#ff577f" data-original="#ff577f" class=""></path></g></g><path d="m443.553 254.328c2.182 2.125 3.178 5.187 2.662 8.188l-1.62 9.437h55.277l-1.62-9.437c-.515-3.001.481-6.063 2.663-8.188l8.279-8.063c5.495-5.352 2.463-14.676-5.131-15.778l-11.441-1.661c-3.015-.438-5.622-2.33-6.97-5.06l-5.117-10.359c-3.396-6.875-13.207-6.875-16.603 0l-5.116 10.359c-1.348 2.73-3.955 4.623-6.97 5.06l-11.441 1.661c-7.593 1.102-10.625 10.427-5.131 15.778z" fill="#f9f097" data-original="#f9f097" class=""></path><g><path d="m224.482 256.674-18.668-9.807c-2.229-1.171-4.89-1.171-7.119 0l-18.667 9.806-.885 5.159c-1.072 6.244 5.487 11.005 11.098 8.057l8.455-4.441c2.229-1.171 4.891-1.171 7.119 0l8.455 4.441c5.612 2.948 12.17-1.813 11.098-8.057z" fill="#f2e586" data-original="#f2e586"></path></g><path d="m416.707 70.174c1.858 1.81 2.706 4.418 2.268 6.974l-.86 5.009h46.041l-.86-5.01c-.439-2.556.409-5.164 2.268-6.974l7.051-6.868c4.68-4.558 2.098-12.5-4.37-13.439l-9.744-1.415c-2.568-.373-4.788-1.985-5.937-4.31l-4.358-8.823c-2.892-5.856-11.249-5.856-14.141 0l-4.358 8.823c-1.148 2.325-3.369 3.937-5.937 4.31l-9.744 1.415c-6.467.939-9.05 8.881-4.37 13.439z" fill="#f9f097" data-original="#f9f097" class=""></path><path d="m195.767 495.131c76.993 18.683 155.348.087 214.341-43.697l.592-10.051c-3.051-3.224-7.693-4.989-13.084-3.55-32.505 8.676-67.601 9.527-102.598.909-110.763-27.275-178.714-140.162-150.971-250.728 21.094-84.07 91.118-143.195 172.278-154.367 14.607-2.011 15.752-22.604 1.439-26.142-.839-.207-1.68-.411-2.523-.61-136.854-32.396-275.112 52.502-308.061 189.122-4.098 16.991-6.389 33.996-7.008 50.815 0 120.816 81.56 220.627 195.595 248.299z" fill="#f7cf77" data-original="#f7cf77"></path><g><path d="m409.066 442.802c-58.993 43.784-136.306 62.012-213.299 43.329-114.035-27.672-191.53-127.618-195.595-239.298-4.38 119.013 75.268 228.681 195.595 257.879 76.993 18.683 154.306.455 213.299-43.329 7.361-5.463 6.648-14.702 1.634-20-.497.494-1.032.972-1.634 1.419z" fill="#f4c260" data-original="#f4c260"></path></g><g><path d="m499.873 271.953-23.331-12.256c-2.697-1.417-5.919-1.417-8.616 0l-23.331 12.256-.334 1.949c-1.297 7.557 6.641 13.319 13.432 9.751l10.233-5.375c2.697-1.417 5.919-1.417 8.616 0l10.233 5.375c6.792 3.568 14.729-2.195 13.432-9.751z" fill="#f2e586" data-original="#f2e586"></path></g><g><path d="m464.157 82.157-19.351-10.166c-2.297-1.207-5.041-1.207-7.339 0l-19.352 10.166-.805 4.688c-1.105 6.436 5.656 11.344 11.441 8.306l8.716-4.578c2.297-1.207 5.041-1.207 7.338 0l8.715 4.578c5.785 3.039 12.546-1.869 11.441-8.306z" fill="#f2e586" data-original="#f2e586"></path></g></g></g></g></svg>