<svg xmlns="http://www.w3.org/2000/svg" version="1.1" xmlns:xlink="http://www.w3.org/1999/xlink" xmlns:svgjs="http://svgjs.com/svgjs" width="512" height="512" x="0" y="0" viewBox="0 0 512.00031 512" style="enable-background:new 0 0 512 512" xml:space="preserve" class=""><g><path xmlns="http://www.w3.org/2000/svg" d="m280.304688 193.691406v-26.707031c0-6.078125-4.835938-11.007813-10.804688-11.007813h-28.808594c-5.96875 0-10.804687 4.929688-10.804687 11.007813v26.707031zm0 0" fill="#1e8bc2" data-original="#1e8bc2"></path><path xmlns="http://www.w3.org/2000/svg" d="m245.699219 193.691406v-26.707031c0-6.078125 4.835937-11.007813 10.804687-11.007813h-15.8125c-5.96875 0-10.804687 4.929688-10.804687 11.007813v26.707031zm0 0" fill="#1b7dae" data-original="#1b7dae"></path><path xmlns="http://www.w3.org/2000/svg" d="m321.441406 193.691406h56.585938l18.742187-61.542968c.980469-3.214844 1.78125-8.59375 1.78125-11.957032v-30.875c0-3.359375-2.703125-6.113281-6.003906-6.113281h-85.625c-3.300781 0-6 2.75-6 6.113281v30.875c0 3.363282.800781 8.742188 1.777344 11.957032zm0 0" fill="#1e8bc2" data-original="#1e8bc2"></path><path xmlns="http://www.w3.org/2000/svg" d="m332.472656 120.191406h-31.550781c0 3.363282.800781 8.742188 1.777344 11.957032l18.742187 61.542968h31.550782l-18.742188-61.542968c-.976562-3.214844-1.777344-8.59375-1.777344-11.957032zm0 0" fill="#1b7dae" data-original="#1b7dae"></path><path xmlns="http://www.w3.org/2000/svg" d="m392.546875 83.203125h-85.625c-3.300781 0-6.003906 2.753906-6.003906 6.117187v30.871094h97.632812v-30.871094c0-3.363281-2.703125-6.117187-6.003906-6.117187zm0 0" fill="#89c947" data-original="#89c947" class=""></path><path xmlns="http://www.w3.org/2000/svg" d="m332.472656 89.316406c0-3.359375 2.699219-6.113281 6-6.113281h-31.550781c-3.300781 0-6.003906 2.75-6.003906 6.113281v30.875h31.550781v-30.875zm0 0" fill="#7bb540" data-original="#7bb540"></path><path xmlns="http://www.w3.org/2000/svg" d="m194.695312 192.691406v41.300782h151.632813c6.402344 0 11.605469 5.3125 11.605469 11.839843 0 6.53125-5.207032 11.84375-11.605469 11.84375h-151.632813v63.175781h225.746094v-128.160156zm0 0" fill="#c0272d" data-original="#c0272d" class=""></path><g xmlns="http://www.w3.org/2000/svg" fill="#ef5050"><path d="m454.777344 320.851562c.105468-.1875.203125-.378906.28125-.582031 8.699218-22.515625 13.109375-46.21875 13.109375-70.460937 0-24.238282-4.410157-47.945313-13.109375-70.457032-.746094-1.925781-2.597656-3.199218-4.664063-3.199218h-25.953125c-2.757812 0-5 2.238281-5 5v139.699218zm0 0" fill="#ef5050" data-original="#ef5050" class=""></path><path d="m269.464844 192.691406h73.070312v41.300782h-73.070312zm0 0" fill="#ef5050" data-original="#ef5050" class=""></path><path d="m269.464844 257.675781h73.070312v63.175781h-73.070312zm0 0" fill="#ef5050" data-original="#ef5050" class=""></path><path d="m123.117188 285.871094c26.792968 0 50.464843 13.894531 64.4375 34.980468h8.140624v-63.171874h-16.226562c-6.398438 0-11.605469-5.316407-11.605469-11.84375 0-6.53125 5.207031-11.84375 11.605469-11.84375h16.226562v-155.148438h-172.863281v242.007812h35.847657c13.976562-21.089843 37.644531-34.980468 64.4375-34.980468zm0 0" fill="#ef5050" data-original="#ef5050" class=""></path></g><path xmlns="http://www.w3.org/2000/svg" d="m54.289062 320.851562v-117.414062c-2.550781-2.3125-4.167968-5.644531-4.167968-9.355469v-77.429687c0-3.710938 1.617187-7.042969 4.167968-9.359375v-28.449219h-31.457031v242.007812zm0 0" fill="#d74848" data-original="#d74848"></path><path xmlns="http://www.w3.org/2000/svg" d="m160.90625 194.082031c0 2.832031-2.316406 5.148438-5.152344 5.148438h-92.980468c-2.835938 0-5.152344-2.316407-5.152344-5.148438v-77.429687c0-2.835938 2.316406-5.152344 5.152344-5.152344h92.980468c2.835938 0 5.152344 2.316406 5.152344 5.152344zm0 0" fill="#a2f9f9" data-original="#a2f9f9"></path><path xmlns="http://www.w3.org/2000/svg" d="m89.109375 194.082031v-77.429687c0-2.835938 2.320313-5.152344 5.152344-5.152344h-31.488281c-2.835938 0-5.152344 2.316406-5.152344 5.152344v77.429687c0 2.832031 2.316406 5.148438 5.152344 5.148438h31.488281c-2.832031 0-5.152344-2.316407-5.152344-5.148438zm0 0" fill="#91e0e0" data-original="#91e0e0" class=""></path><path xmlns="http://www.w3.org/2000/svg" d="m155.753906 206.730469h-92.980468c-6.976563 0-12.652344-5.671875-12.652344-12.648438v-77.429687c0-6.976563 5.675781-12.652344 12.652344-12.652344h92.980468c6.976563 0 12.652344 5.675781 12.652344 12.652344v77.429687c0 6.976563-5.675781 12.648438-12.652344 12.648438zm-90.632812-15h88.285156v-72.730469h-88.285156zm0 0" fill="#c0272d" data-original="#c0272d" class=""></path><path xmlns="http://www.w3.org/2000/svg" d="m358.933594 245.832031c0 7.09375-5.644532 12.84375-12.601563 12.84375h-166.863281c-6.960938 0-12.605469-5.75-12.605469-12.84375 0-7.089843 5.644531-12.839843 12.605469-12.839843h166.859375c6.960937 0 12.605469 5.75 12.605469 12.839843zm0 0" fill="#89c947" data-original="#89c947" class=""></path><path xmlns="http://www.w3.org/2000/svg" d="m198.308594 245.832031c0-7.089843 5.644531-12.839843 12.605468-12.839843h-31.445312c-6.960938 0-12.605469 5.75-12.605469 12.839843 0 7.09375 5.644531 12.84375 12.605469 12.84375h31.445312c-6.960937 0-12.605468-5.75-12.605468-12.84375zm0 0" fill="#7bb540" data-original="#7bb540"></path><path xmlns="http://www.w3.org/2000/svg" d="m45.417969 365.054688c0-16.574219 5.03125-31.972657 13.609375-44.703126h-43.074219c-2.832031 0-5.148437 2.320313-5.148437 5.152344v37.53125c0 2.835938 2.316406 5.152344 5.148437 5.152344h29.542969c-.042969-1.042969-.078125-2.082031-.078125-3.132812zm0 0" fill="#046699" data-original="#046699" class=""></path><path xmlns="http://www.w3.org/2000/svg" d="m511.527344 416.15625-44.6875-91.179688c-1.246094-2.542968-4.582032-4.625-7.417969-4.625h-272.210937c8.578124 12.730469 13.609374 28.128907 13.609374 44.703126 0 1.050781-.039062 2.09375-.078124 3.132812h38.257812c8.558594-12.679688 22.886719-21.011719 39.09375-21.011719s30.535156 8.332031 39.09375 21.011719h41.480469c8.558593-12.679688 22.886719-21.011719 39.09375-21.011719 26.152343 0 47.429687 21.6875 47.429687 48.34375 0 9.253907-2.570312 17.90625-7.011718 25.261719h70.460937c2.835937 0 4.132813-2.082031 2.886719-4.625zm0 0" fill="#046699" data-original="#046699" class=""></path><path xmlns="http://www.w3.org/2000/svg" d="m201.820312 365.054688c0-44.285157-35.238281-80.183594-78.703124-80.183594-43.464844 0-78.699219 35.898437-78.699219 80.183594 0 44.289062 35.234375 80.1875 78.699219 80.1875 43.464843 0 78.703124-35.898438 78.703124-80.1875zm0 0" fill="#9ea7af" data-original="#9ea7af" class=""></path><path xmlns="http://www.w3.org/2000/svg" d="m123.117188 400.367188c-19.089844 0-34.621094-15.839844-34.621094-35.3125 0-19.46875 15.53125-35.308594 34.621094-35.308594 19.09375 0 34.625 15.839844 34.625 35.308594-.003907 19.472656-15.53125 35.3125-34.625 35.3125zm0 0" fill="#e6e9ed" data-original="#e6e9ed"></path><path xmlns="http://www.w3.org/2000/svg" d="m120.015625 365.054688c0-13.683594 7.675781-25.5625 18.863281-31.421876-4.730468-2.476562-10.085937-3.886718-15.761718-3.886718-19.089844 0-34.621094 15.839844-34.621094 35.3125 0 19.46875 15.53125 35.308594 34.621094 35.308594 5.671874 0 11.027343-1.40625 15.761718-3.886719-11.1875-5.859375-18.863281-17.742188-18.863281-31.425781zm0 0" fill="#cfd1d5" data-original="#cfd1d5"></path><path xmlns="http://www.w3.org/2000/svg" d="m446.191406 395.519531c0-27.253906-21.683594-49.34375-48.429687-49.34375-26.746094 0-48.429688 22.089844-48.429688 49.34375 0 27.25 21.683594 49.34375 48.429688 49.34375 26.746093 0 48.429687-22.09375 48.429687-49.34375zm0 0" fill="#9ea7af" data-original="#9ea7af" class=""></path><path xmlns="http://www.w3.org/2000/svg" d="m397.761719 414.285156c-10.15625 0-18.417969-8.417968-18.417969-18.765625 0-10.347656 8.261719-18.765625 18.417969-18.765625s18.417969 8.417969 18.417969 18.765625c0 10.347657-8.261719 18.765625-18.417969 18.765625zm0 0" fill="#e6e9ed" data-original="#e6e9ed"></path><path xmlns="http://www.w3.org/2000/svg" d="m395.074219 395.519531c0-7.476562 4.324219-13.929687 10.554687-16.945312-2.390625-1.15625-5.050781-1.820313-7.867187-1.820313-10.15625 0-18.417969 8.417969-18.417969 18.765625 0 10.347657 8.261719 18.765625 18.417969 18.765625 2.816406 0 5.476562-.664062 7.867187-1.820312-6.230468-3.015625-10.554687-9.464844-10.554687-16.945313zm0 0" fill="#cfd1d5" data-original="#cfd1d5"></path><path xmlns="http://www.w3.org/2000/svg" d="m326.523438 395.519531c0-27.253906-21.683594-49.34375-48.429688-49.34375-26.75 0-48.433594 22.089844-48.433594 49.34375 0 27.25 21.683594 49.34375 48.433594 49.34375 26.746094 0 48.429688-22.09375 48.429688-49.34375zm0 0" fill="#9ea7af" data-original="#9ea7af" class=""></path><path xmlns="http://www.w3.org/2000/svg" d="m278.09375 414.285156c-10.15625 0-18.417969-8.417968-18.417969-18.765625 0-10.347656 8.261719-18.765625 18.417969-18.765625s18.417969 8.417969 18.417969 18.765625c0 10.347657-8.261719 18.765625-18.417969 18.765625zm0 0" fill="#e6e9ed" data-original="#e6e9ed"></path><path xmlns="http://www.w3.org/2000/svg" d="m275.574219 395.519531c0-7.445312 4.285156-13.871093 10.46875-16.902343-2.410157-1.183594-5.101563-1.863282-7.949219-1.863282-10.15625 0-18.417969 8.417969-18.417969 18.765625 0 10.347657 8.261719 18.769531 18.417969 18.769531 2.847656 0 5.539062-.683593 7.949219-1.867187-6.183594-3.03125-10.46875-9.457031-10.46875-16.902344zm0 0" fill="#cfd1d5" data-original="#cfd1d5"></path><path xmlns="http://www.w3.org/2000/svg" d="m5.152344 79.84375c-2.847656 0-5.152344-2.304688-5.152344-5.152344v-36.542968c0-1.675782.8125-3.246094 2.183594-4.207032 31.484375-22.207031 68.515625-33.941406 107.082031-33.941406s75.59375 11.734375 107.082031 33.941406c1.367188.964844 2.179688 2.535156 2.179688 4.207032v36.542968c0 2.847656-2.304688 5.152344-5.148438 5.152344zm0 0" fill="#89c947" data-original="#89c947" class=""></path><path xmlns="http://www.w3.org/2000/svg" d="m31.421875 73.453125v-56.402344c-10.160156 4.699219-19.941406 10.332031-29.238281 16.886719-1.371094.964844-2.183594 2.535156-2.183594 4.210938v36.542968c0 2.847656 2.304688 5.152344 5.152344 5.152344h32.65625c-3.527344 0-6.386719-2.859375-6.386719-6.390625zm0 0" fill="#7bb540" data-original="#7bb540"></path></g></svg>