<svg xmlns="http://www.w3.org/2000/svg" version="1.1" xmlns:xlink="http://www.w3.org/1999/xlink" xmlns:svgjs="http://svgjs.com/svgjs" width="512" height="512" x="0" y="0" viewBox="0 0 512 512" style="enable-background:new 0 0 512 512" xml:space="preserve" class=""><g><path xmlns="http://www.w3.org/2000/svg" d="m458.79 212h-405.58l-22.72 262.05.1-.09a1108.507 1108.507 0 0 0 450.82-.055l.1.172z" fill="#e84d7a" data-original="#e84d7a"></path><path xmlns="http://www.w3.org/2000/svg" d="m362.12 81.15 63.92 130.41h-33.41l-57.45-117.2a86.977 86.977 0 0 0 -13.14-19.55l13.56-29a118.123 118.123 0 0 1 26.52 35.34z" fill="#f5cac1" data-original="#f5cac1"></path><path xmlns="http://www.w3.org/2000/svg" d="m335.6 45.81-13.56 29a88.037 88.037 0 0 0 -132.08 0l-13.55-29a118.231 118.231 0 0 1 159.19 0z" fill="#efc597" data-original="#efc597"></path><path xmlns="http://www.w3.org/2000/svg" d="m176.41 45.81 13.55 29a86.977 86.977 0 0 0 -13.14 19.55l-57.32 116.93v.27h-33.54l63.92-130.41a118.154 118.154 0 0 1 26.53-35.34z" fill="#f5cac1" data-original="#f5cac1"></path><path xmlns="http://www.w3.org/2000/svg" d="m53.21 212 56.89 106.92a39.856 39.856 0 0 0 35.32 21.08h221.16a39.856 39.856 0 0 0 35.32-21.08l56.89-106.92z" fill="#fc88b5" data-original="#fc88b5" class=""></path><path xmlns="http://www.w3.org/2000/svg" d="m279.82 307h-47.64a3.921 3.921 0 0 0 -4.18 3.71v103.71a28 28 0 0 0 56 0v-103.71a3.921 3.921 0 0 0 -4.18-3.71z" fill="#c6e02d" data-original="#c6e02d"></path><g xmlns="http://www.w3.org/2000/svg" fill="#81c83d"><path d="m256 334.86a6.165 6.165 0 1 1 -6.17 6.16 6.165 6.165 0 0 1 6.17-6.16z" fill="#81c83d" data-original="#81c83d"></path><path d="m256 365.86a6.165 6.165 0 1 1 -6.17 6.16 6.165 6.165 0 0 1 6.17-6.16z" fill="#81c83d" data-original="#81c83d"></path><path d="m256 396.86a6.165 6.165 0 1 1 -6.17 6.16 6.165 6.165 0 0 1 6.17-6.16z" fill="#81c83d" data-original="#81c83d"></path></g><circle xmlns="http://www.w3.org/2000/svg" cx="444.91" cy="437.99" fill="#ad2a34" r="11.42" data-original="#ad2a34"></circle><path xmlns="http://www.w3.org/2000/svg" d="m53.21 212-22.72 262.05.1-.09q15.078 3.131 30.217 5.835l23.403-267.795z" fill="#c43d6a" data-original="#c43d6a"></path><path xmlns="http://www.w3.org/2000/svg" d="m141.1 318.92-56.89-106.92h-31l56.89 106.92a39.856 39.856 0 0 0 35.32 21.08h31a39.856 39.856 0 0 1 -35.32-21.08z" fill="#e06c9b" data-original="#e06c9b"></path><circle xmlns="http://www.w3.org/2000/svg" cx="67.09" cy="437.99" fill="#ad2a34" r="11.42" data-original="#ad2a34"></circle><path xmlns="http://www.w3.org/2000/svg" d="m126.449 251.333h-4.78a6 6 0 0 1 0-12h4.78a6 6 0 1 1 0 12z" fill="#f4f8fc" data-original="#f4f8fc"></path><path xmlns="http://www.w3.org/2000/svg" d="m258.167 251.333h-111.077a6 6 0 0 1 0-12h111.077a6 6 0 0 1 0 12z" fill="#f4f8fc" data-original="#f4f8fc"></path></g></svg>