<svg xmlns="http://www.w3.org/2000/svg" version="1.1" xmlns:xlink="http://www.w3.org/1999/xlink" xmlns:svgjs="http://svgjs.com/svgjs" width="512" height="512" x="0" y="0" viewBox="0 0 32 32" style="enable-background:new 0 0 512 512" xml:space="preserve" class=""><g><g xmlns="http://www.w3.org/2000/svg" id="Layer_2" data-name="Layer 2"><path d="m25 16h-18a1 1 0 0 1 -.9-1.428l4.245-8.972a6.257 6.257 0 0 1 11.31 0l4.245 8.972a1 1 0 0 1 -.9 1.428zm-16.42-2h14.84l-3.572-7.541a4.258 4.258 0 0 0 -7.7 0z" fill="#e82e60" data-original="#e82e60" class=""></path><path d="m28 17v10a3.009 3.009 0 0 1 -3 3h-18a3.009 3.009 0 0 1 -3-3v-10a2.841 2.841 0 0 1 .09-.72 3 3 0 0 1 2.91-2.28h18a3 3 0 0 1 2.91 2.28 2.841 2.841 0 0 1 .09.72z" fill="#ff5773" data-original="#ff5773" class=""></path><path d="m27.91 16.28a9.008 9.008 0 0 1 -7.91 4.72h-.18a2.868 2.868 0 0 1 0 2h.18a11 11 0 0 0 8-3.45v-2.55a2.841 2.841 0 0 0 -.09-.72zm-15.91 4.72a9.008 9.008 0 0 1 -7.91-4.72 2.841 2.841 0 0 0 -.09.72v2.55a11 11 0 0 0 8 3.45h.18a2.868 2.868 0 0 1 0-2z" fill="#e82e60" data-original="#e82e60" class=""></path><path d="m17 25h-2a3 3 0 0 1 0-6h2a3 3 0 0 1 0 6zm-2-4a1 1 0 0 0 0 2h2a1 1 0 0 0 0-2z" fill="#eaf6ff" data-original="#eaf6ff"></path></g></g></svg>